<?xml version="1.0" encoding="UTF-8" standalone="no"?>
<svg
   xmlns:dc="http://purl.org/dc/elements/1.1/"
   xmlns:cc="http://creativecommons.org/ns#"
   xmlns:rdf="http://www.w3.org/1999/02/22-rdf-syntax-ns#"
   xmlns:svg="http://www.w3.org/2000/svg"
   xmlns="http://www.w3.org/2000/svg"
   xmlns:sodipodi="http://sodipodi.sourceforge.net/DTD/sodipodi-0.dtd"
   xmlns:inkscape="http://www.inkscape.org/namespaces/inkscape"
   width="16"
   height="16"
   viewBox="0 0 16 16"
   version="1.1"
   id="svg11"
   sodipodi:docname="dataFile.svg"
   inkscape:version="1.0 (4035a4fb49, 2020-05-01)">
  <metadata
     id="metadata17">
    <rdf:RDF>
      <cc:Work
         rdf:about="">
        <dc:format>image/svg+xml</dc:format>
        <dc:type
           rdf:resource="http://purl.org/dc/dcmitype/StillImage" />
        <dc:title></dc:title>
      </cc:Work>
    </rdf:RDF>
  </metadata>
  <defs
     id="defs15" />
  <sodipodi:namedview
     inkscape:pagecheckerboard="true"
     inkscape:document-rotation="0"
     pagecolor="#ffffff"
     bordercolor="#666666"
     borderopacity="1"
     objecttolerance="10"
     gridtolerance="10"
     guidetolerance="10"
     inkscape:pageopacity="0"
     inkscape:pageshadow="2"
     inkscape:window-width="1920"
     inkscape:window-height="1057"
     id="namedview13"
     showgrid="false"
     inkscape:zoom="80.0625"
     inkscape:cx="9.9984387"
     inkscape:cy="11.404651"
     inkscape:window-x="-8"
     inkscape:window-y="-8"
     inkscape:window-maximized="1"
     inkscape:current-layer="layer4" />
  <rect
     id="frame"
     width="16"
     height="16"
     fill="none" />
  <g
     fill="none"
     fill-rule="evenodd"
     id="g9" />
  <g
     inkscape:groupmode="layer"
     id="layer2"
     inkscape:label="Achergrond"
     style="display:inline">
    <path
       d="M 8,1 V 6 H 3 v 8.970703 h 5.8300781 c -0.016383,-0.01973 -0.036553,-0.03681 -0.052734,-0.05664 C 7.6748186,13.607016 7.2440782,11.741772 7.7519531,10.099609 8.1929976,8.595656 9.5763759,7.4320315 11.136719,7.265625 c 0.303104,-0.037208 0.603157,-0.042864 0.90039,-0.021484 0.330185,0.02375 0.652548,0.092859 0.96875,0.1816406 L 13,1 Z m 3.791016,7.3183594 c -0.217641,-0.00574 -0.438659,0.00773 -0.658204,0.042969 -0.103198,0.017325 -0.203733,0.040831 -0.304687,0.068359 1.332982,0.6705135 2.191201,2.1699576 2.078125,3.6601566 -0.06841,0.424794 -0.02699,0.859786 0.103516,1.265625 l -0.0039,-4.7968753 C 12.615374,8.4174925 12.207263,8.3293376 11.791016,8.3183594 Z M 9.5800781,9.1347656 C 9.4405925,9.2679375 9.3153826,9.4160439 9.2050781,9.5742188 8.2852108,10.905935 8.5405447,12.758138 9.4375,14.033203 c 0.230555,0.344728 0.514385,0.661395 0.833984,0.9375 h 2.419922 C 12.017574,14.149248 11.672888,13.056104 11.828125,11.994141 11.92909,10.654515 10.903973,9.3552873 9.5800781,9.1347656 Z"
       style="fill:#9aa7b0;fill-opacity:0.8"
       id="path5" />
    <path
       fill="#9aa7b0"
       fill-opacity="0.8"
       d="M 7,1 3,5 h 4 z"
       id="path3" />
  </g>
  <g
     inkscape:groupmode="layer"
     id="layer4"
     inkscape:label="Bruin"
     style="display:inline">
    <g
       style="display:none"
       transform="matrix(0.02200227,-0.00353466,0.00353466,0.02200227,4.5655528,6.1982108)"
       id="XMLID_947_-8">
      <g
         id="XMLID_948_-6"
         fill="#c68a65">
        <path
           id="XMLID_950_-9"
           d="m 273.127,238.947 c 0,62.774 -50.888,113.662 -113.662,113.662 -62.774,0 -113.662,50.888 -113.662,113.662 53.588,53.588 147.917,46.14 210.691,-16.634 62.774,-62.773 70.221,-157.103 16.633,-210.69 z" />
        <path
           id="XMLID_952_-2"
           d="m 159.465,352.609 c 62.774,0 113.663,-50.888 113.663,-113.662 C 219.54,185.359 125.21,192.806 62.436,255.58 -0.338,318.354 -7.785,412.684 45.802,466.271 c 0,-62.774 50.889,-113.662 113.663,-113.662 z" />
      </g>
      <g
         id="XMLID_955_-0"
         fill="#d1a184">
        <path
           id="XMLID_957_-5"
           d="M 438.911,304.496 C 378.276,288.249 342.292,225.924 358.54,165.289 374.787,104.654 338.804,42.329 278.169,26.081 c -65.631,37.892 -82.852,130.935 -38.464,207.817 44.387,76.883 133.575,108.49 199.206,70.598 z" />
        <path
           id="XMLID_956_-5"
           d="m 358.54,165.288 c -16.247,60.635 19.736,122.961 80.371,139.208 C 504.542,266.604 521.763,173.561 477.375,96.679 432.988,19.797 343.8,-11.811 278.169,26.081 c 60.635,16.247 96.618,78.572 80.371,139.207 z" />
      </g>
      <g
         id="XMLID_2178_-4">
        <path
           id="XMLID_2181_-8"
           d="M 486.036,91.679 C 463.379,52.436 428.945,23.043 389.078,8.914 348.65,-5.413 307.485,-2.393 273.168,17.421 c -34.317,19.813 -57.516,53.952 -65.322,96.127 -5.003,27.03 -3.267,55.294 4.775,82.545 -22.803,-4.628 -47.168,-3.812 -71.517,2.548 -31.766,8.299 -61.415,25.543 -85.74,49.868 -32.042,32.042 -51.522,72.91 -54.85,115.075 -3.376,42.759 10.196,81.739 38.217,109.759 23.231,23.231 53.866,36.535 88.594,38.475 2.81,0.157 5.629,0.235 8.463,0.234 30.644,-10e-4 62.466,-9.12 90.492,-26.063 4.727,-2.857 6.242,-9.005 3.384,-13.731 -2.856,-4.727 -9.004,-6.24 -13.731,-3.384 -54.888,33.182 -120.004,30.206 -160.039,-6.798 2.21,-55.221 47.817,-99.466 103.571,-99.466 27.139,0 52.9,-8.627 74.496,-24.949 16.693,-12.616 30.006,-29.487 38.502,-48.49 7.739,6.665 15.962,12.626 24.583,17.82 5.672,33.169 -1.989,70.112 -21.315,102.085 -2.857,4.726 -1.341,10.874 3.385,13.731 1.618,0.978 3.402,1.443 5.164,1.443 3.385,0 6.688,-1.72 8.567,-4.828 19.07,-31.548 28.031,-67.589 25.634,-101.477 3.137,1.333 6.309,2.581 9.52,3.719 16.806,5.956 33.739,8.914 50.255,8.914 23.214,0 45.604,-5.844 65.655,-17.421 34.318,-19.813 57.516,-53.952 65.322,-96.127 7.699,-41.591 -0.54,-86.108 -23.197,-125.351 z m -326.571,250.93 c -59.597,0 -109.479,42.377 -121.104,98.58 C 5.589,390.226 17.31,314.848 69.507,262.651 c 42.63,-42.631 101.582,-59.541 151.414,-43.808 2.971,6.806 6.342,13.505 10.123,20.055 7.442,12.891 16.163,24.71 25.921,35.283 -14.689,40.559 -53.973,68.428 -97.5,68.428 z m 175.217,-39.797 c -35.384,-12.54 -66.039,-38.79 -86.318,-73.914 -40.73,-70.548 -26.54,-155.605 31.228,-191.989 52.778,16.421 83.72,71.931 69.288,125.791 -8.549,31.906 -4.162,65.231 12.354,93.837 12.251,21.22 30.092,37.953 51.51,48.671 -24.304,7.81 -51.305,7.086 -78.062,-2.396 z m 102.804,-9.144 c -24.964,-7.755 -45.785,-24.362 -58.93,-47.13 C 364.711,222.558 361.033,194.622 368.2,167.877 383.625,110.311 355.603,51.16 304.324,25.385 c 57.707,-18.464 127.484,12.366 164.393,76.294 40.729,70.548 26.539,155.607 -31.231,191.989 z" />
        <path
           id="XMLID_2184_-0"
           d="m 256.497,439.637 c -2.63,0 -5.21,1.07 -7.07,2.93 -1.87,1.86 -2.93,4.44 -2.93,7.07 0,2.63 1.06,5.21 2.93,7.07 1.86,1.86 4.43,2.93 7.07,2.93 2.63,0 5.21,-1.07 7.07,-2.93 1.86,-1.86 2.93,-4.44 2.93,-7.07 0,-2.63 -1.07,-5.21 -2.93,-7.07 -1.86,-1.86 -4.44,-2.93 -7.07,-2.93 z" />
      </g>
    </g>
    <path
       d="m 11.791016,8.3183594 c -0.217641,-0.00574 -0.438659,0.00773 -0.658204,0.042969 -0.103198,0.017325 -0.203733,0.040831 -0.304687,0.068359 1.332982,0.6705135 2.191201,2.1699576 2.078125,3.6601566 -0.179151,1.112484 0.38371,2.296064 1.375,2.83789 0.332592,0.13575 0.84101,0.51797 1.074219,0.06445 1.00036,-1.208562 0.895672,-3.016335 0.130859,-4.316407 C 14.748178,9.3577344 13.314501,8.3585404 11.791016,8.3183594 Z M 9.5800781,9.1347656 C 9.4405925,9.2679375 9.3153826,9.4160439 9.2050781,9.5742188 8.2852108,10.905935 8.5405447,12.758138 9.4375,14.033203 c 0.942398,1.409082 2.747208,2.361069 4.445312,1.90625 C 12.452067,15.231014 11.597668,13.57068 11.828125,11.994141 11.92909,10.654515 10.903973,9.3552873 9.5800781,9.1347656 Z"
       style="fill:#d1a184;stroke-width:0;stroke-miterlimit:4;stroke-dasharray:none"
       id="XMLID_957_-7" />
  </g>
</svg>
